<?xml version="1.0" encoding="iso-8859-1"?>
<!-- Generator: Adobe Illustrator 19.0.0, SVG Export Plug-In . SVG Version: 6.00 Build 0)  -->
<svg version="1.1" id="Layer_1" xmlns="http://www.w3.org/2000/svg" xmlns:xlink="http://www.w3.org/1999/xlink" x="0px" y="0px"
	 viewBox="0 0 480 480" style="enable-background:new 0 0 480 480;" xml:space="preserve">
<g>
	<g>
		<g>
			<path d="M470,448.595H20V21.405c0-5.523-4.477-10-10-10s-10,4.477-10,10v437.19c0,5.523,4.477,10,10,10h460
				c5.522,0,10-4.477,10-10S475.522,448.595,470,448.595z"/>
			<path d="M60.173,331.735h22v39.422c0,5.523,4.477,10,10,10c5.523,0,10-4.477,10-10v-39.422H121c5.523,0,10-4.477,10-10V188.677
				c0-5.523-4.477-10-10-10h-18.827v-43.223c0-5.523-4.477-10-10-10c-5.523,0-10,4.477-10,10v43.223h-22c-5.523,0-10,4.477-10,10
				v133.058C50.173,327.258,54.65,331.735,60.173,331.735z M70.173,198.677H111v113.058H70.173V198.677z"/>
			<path d="M163.239,286.115h21.934v39.421c0,5.523,4.477,10,10,10c5.523,0,10-4.477,10-10v-39.421h18.893c5.523,0,10-4.477,10-10
				V143.057c0-5.523-4.477-10-10-10h-18.893V89.835c0-5.523-4.477-10-10-10c-5.523,0-10,4.477-10,10v43.223h-21.934
				c-5.523,0-10,4.477-10,10v133.058C153.239,281.638,157.716,286.115,163.239,286.115z M173.239,153.057h40.827v113.058h-40.827
				V153.057z"/>
			<path d="M263.173,240.496h24v39.421c0,5.523,4.478,10,10,10c5.522,0,10-4.477,10-10v-39.421h20.628c5.522,0,10-4.477,10-10
				V97.438c0-5.523-4.478-10-10-10h-20.628V44.215c0-5.523-4.478-10-10-10c-5.522,0-10,4.477-10,10v43.224h-24
				c-5.522,0-10,4.477-10,10v133.058C253.173,236.019,257.65,240.496,263.173,240.496z M273.173,107.438h44.628v113.058h-44.628
				V107.438z"/>
			<path d="M370.173,301.322h22.05v39.422c0,5.523,4.478,10,10,10c5.522,0,10-4.477,10-10v-39.422H431c5.522,0,10-4.477,10-10
				V173.471c0-5.523-4.478-10-10-10h-18.777v-43.223c0-5.523-4.478-10-10-10c-5.522,0-10,4.477-10,10v43.223h-22.05
				c-5.522,0-10,4.477-10,10v117.851C360.173,296.845,364.65,301.322,370.173,301.322z M380.173,183.471H421v97.851h-40.827V183.471
				z"/>
		</g>
	</g>
</g>
<g>
</g>
<g>
</g>
<g>
</g>
<g>
</g>
<g>
</g>
<g>
</g>
<g>
</g>
<g>
</g>
<g>
</g>
<g>
</g>
<g>
</g>
<g>
</g>
<g>
</g>
<g>
</g>
<g>
</g>
</svg>
