<?xml version="1.0" encoding="iso-8859-1"?>
<!-- Generator: Adobe Illustrator 19.0.0, SVG Export Plug-In . SVG Version: 6.00 Build 0)  -->
<svg xmlns="http://www.w3.org/2000/svg" xmlns:xlink="http://www.w3.org/1999/xlink" version="1.1" id="Layer_1" x="0px" y="0px" viewBox="0 0 512 512" style="enable-background:new 0 0 512 512;" xml:space="preserve" width="512px" height="512px">
<g>
	<g>
		<rect x="100.174" y="378.435" width="33.391" height="33.391" fill="#FFFFFF"/>
	</g>
</g>
<g>
	<g>
		<path d="M511.86,215.656c-0.038-0.454-0.012-0.899-0.088-1.357L478.381,13.951C477.044,5.902,470.076,0,461.913,0H384    c-8.163,0-15.131,5.902-16.467,13.951l-31.065,186.397H324.13l-95.282-95.282c-10.484-10.485-28.501-3.054-28.501,11.804v59.87    l-71.674-71.674c-10.46-10.484-28.499-3.061-28.499,11.805v59.87l-71.674-71.673C18.017,94.581,0,102.012,0,116.87v161.391h512    v-61.217C512,216.568,511.9,216.121,511.86,215.656z M381.446,133.565l5.565-33.391h71.891l5.565,33.391H381.446z" fill="#FFFFFF"/>
	</g>
</g>
<g>
	<g>
		<rect x="367.304" y="378.435" width="44.522" height="133.565" fill="#FFFFFF"/>
	</g>
</g>
<g>
	<g>
		<path d="M0,311.652v183.652C0,504.527,7.479,512,16.696,512h317.217V361.739c0-9.223,7.479-16.696,16.696-16.696h77.913    c9.217,0,16.696,7.473,16.696,16.696V512h50.087c9.217,0,16.696-7.473,16.696-16.696V311.652H0z M166.957,428.522    c0,9.223-7.479,16.696-16.696,16.696H83.478c-9.217,0-16.696-7.473-16.696-16.696v-66.783c0-9.223,7.479-16.696,16.696-16.696    h66.783c9.217,0,16.696,7.473,16.696,16.696V428.522z M300.522,428.522c0,9.223-7.479,16.696-16.696,16.696h-66.783    c-9.217,0-16.696-7.473-16.696-16.696v-66.783c0-9.223,7.479-16.696,16.696-16.696h66.783c9.217,0,16.696,7.473,16.696,16.696    V428.522z" fill="#FFFFFF"/>
	</g>
</g>
<g>
	<g>
		<rect x="233.739" y="378.435" width="33.391" height="33.391" fill="#FFFFFF"/>
	</g>
</g>
<g>
	<g>
		<path d="M328.348,20.951c-6.881-6.157-17.435-5.56-23.565,1.305c-12.11,13.515-27.58,15.556-41.913,0    c-26.076-29.214-65.195-29.64-91.652,0c-6.152,6.87-5.576,17.424,1.304,23.576c6.87,6.163,17.424,5.56,23.565-1.304    c12.11-13.515,27.58-15.557,41.913,0c26.076,29.213,65.195,29.64,91.652,0C335.804,37.658,335.229,27.104,328.348,20.951z" fill="#FFFFFF"/>
	</g>
</g>
<g>
</g>
<g>
</g>
<g>
</g>
<g>
</g>
<g>
</g>
<g>
</g>
<g>
</g>
<g>
</g>
<g>
</g>
<g>
</g>
<g>
</g>
<g>
</g>
<g>
</g>
<g>
</g>
<g>
</g>
</svg>
