<?xml version="1.0" encoding="iso-8859-1"?>
<!-- Generator: Adobe Illustrator 19.0.0, SVG Export Plug-In . SVG Version: 6.00 Build 0)  -->
<svg version="1.1" id="Layer_1" xmlns="http://www.w3.org/2000/svg" xmlns:xlink="http://www.w3.org/1999/xlink" x="0px" y="0px"
	 viewBox="0 0 480 480" style="enable-background:new 0 0 480 480;" xml:space="preserve">
<g>
	<g>
		<g>
			<path d="M470,72.236c5.522,0,10-4.477,10-10V16.989c0-5.523-4.478-10-10-10H10c-5.522,0-10,4.477-10,10v45.246
				c0,5.523,4.478,10,10,10h35.246v255.246H13.771c-5.522,0-10,4.477-10,10s4.478,10,10,10h41.476h182.295v25.246h-42.787
				c-5.522,0-10,4.477-10,10s4.478,10,10,10h42.787v29.017h-26.953c-2.074,0-4.097,0.645-5.788,1.846l-40.316,28.618
				c-4.504,3.197-5.563,9.439-2.366,13.942c3.197,4.504,9.439,5.565,13.942,2.366l37.717-26.772h23.765v20.164
				c0,5.523,4.478,10,10,10c5.522,0,10-4.477,10-10v-20.164h27.436l35.62,29.018c1.856,1.512,4.09,2.248,6.311,2.248
				c2.903,0,5.782-1.258,7.759-3.685c3.488-4.282,2.845-10.581-1.437-14.069l-38.379-31.265c-1.784-1.454-4.016-2.247-6.316-2.247
				h-30.993v-29.017h42.787c5.522,0,10-4.477,10-10s-4.478-10-10-10h-42.787v-25.246h167.213H470c5.522,0,10-4.477,10-10
				s-4.478-10-10-10h-35.246V72.236H470z M414.754,327.482H65.246V72.236h349.508V327.482z M424.754,52.236H55.246H20V26.989h440
				v25.246H424.754z"/>
			<path d="M119.344,302.235h260.164c5.522,0,10-4.477,10-10s-4.478-10-10-10H129.344V122.564c0-5.523-4.478-10-10-10
				c-5.522,0-10,4.477-10,10v169.672C109.344,297.758,113.821,302.235,119.344,302.235z"/>
			<path d="M170.27,254.073c2.681,0,5.354-1.071,7.324-3.189l68.352-73.483l17.21,27.55c1.626,2.602,4.355,4.314,7.406,4.644
				c3.048,0.332,6.083-0.758,8.228-2.953l66.407-67.96l-0.913,22.634c-0.223,5.519,4.07,10.172,9.589,10.395
				c0.138,0.006,0.274,0.008,0.41,0.008c5.337,0,9.768-4.216,9.985-9.597l1.984-49.186c0.112-2.785-0.942-5.489-2.909-7.463
				c-1.967-1.973-4.648-3.028-7.454-2.934l-49.127,1.822c-5.519,0.205-9.827,4.845-9.622,10.364
				c0.205,5.519,4.823,9.836,10.364,9.623l24.628-0.914l-58.755,60.128l-17.384-27.828c-1.648-2.639-4.432-4.36-7.528-4.656
				c-3.102-0.297-6.155,0.865-8.275,3.144l-77.24,83.039c-3.762,4.043-3.532,10.371,0.512,14.133
				C165.387,253.188,167.831,254.073,170.27,254.073z"/>
		</g>
	</g>
</g>
<g>
</g>
<g>
</g>
<g>
</g>
<g>
</g>
<g>
</g>
<g>
</g>
<g>
</g>
<g>
</g>
<g>
</g>
<g>
</g>
<g>
</g>
<g>
</g>
<g>
</g>
<g>
</g>
<g>
</g>
</svg>
