<?xml version="1.0" encoding="iso-8859-1"?>
<!-- Generator: Adobe Illustrator 19.0.0, SVG Export Plug-In . SVG Version: 6.00 Build 0)  -->
<svg version="1.1" id="Layer_1" xmlns="http://www.w3.org/2000/svg" xmlns:xlink="http://www.w3.org/1999/xlink" x="0px" y="0px"
	 viewBox="0 0 486 486" style="enable-background:new 0 0 486 486;" xml:space="preserve">
<g>
	<g>
		<g>
			<path d="M474.113,265H373.455c-4.606,0-8.616,3.146-9.712,7.62C350.125,328.189,300.602,367,243.311,367
				c-1.383,0-2.855-0.031-4.633-0.096c-2.705-0.099-5.351,0.908-7.307,2.793s-3.06,4.484-3.06,7.2v99.039
				c0,5.441,4.35,9.883,9.789,9.998c1.733,0.037,3.468,0.066,5.211,0.066c59.074,0,116.017-21.455,160.338-60.412
				c43.911-38.596,72.454-91.592,80.371-149.227c0.393-2.862-0.471-5.755-2.37-7.933C479.751,266.25,477.003,265,474.113,265z
				 M248.311,465.944v-79.027c31.017-1.04,60.148-11.749,84.53-31.132c22.842-18.158,39.765-43.072,48.231-70.785h81.272
				C442.814,387.338,353.173,463.587,248.311,465.944z"/>
			<path d="M185.336,10.921c-2.504-1.89-5.751-2.496-8.766-1.635C126.782,23.477,81.935,54.048,50.285,95.367
				C17.592,138.049,0.311,189.1,0.311,243c0,53.9,17.282,104.951,49.975,147.634c31.649,41.319,76.497,71.89,126.284,86.081
				c0.902,0.257,1.824,0.383,2.741,0.383c2.15,0,4.269-0.694,6.024-2.019c2.504-1.889,3.976-4.844,3.976-7.981V360.756
				c0-3.662-2.002-7.031-5.217-8.782c-39.959-21.765-64.783-63.521-64.783-108.974s24.824-87.209,64.784-108.974
				c3.216-1.752,5.217-5.12,5.217-8.782V18.902C189.312,15.766,187.839,12.811,185.336,10.921z M169.311,119.445
				c-43.33,25.982-70,72.78-70,123.555c0,50.775,26.67,97.574,70,123.555v86.873c-88.37-31.093-149-115.774-149-210.428
				s60.63-179.335,149-210.428V119.445z"/>
			<path d="M238.678,119.096c1.778-0.066,3.25-0.096,4.633-0.096c62.314,0,115.197,46.54,123.011,108.256
				c0.633,4.997,4.884,8.744,9.921,8.744h99.448c2.777,0,5.429-1.155,7.32-3.188c1.892-2.033,2.853-4.761,2.653-7.531
				c-4.407-61.117-31.573-117.892-76.49-159.866C364.032,23.231,305.128,0,243.311,0c-1.742,0-3.478,0.029-5.211,0.065
				c-5.439,0.115-9.789,4.558-9.789,9.998v99.04c0,2.716,1.104,5.315,3.06,7.2S235.975,119.199,238.678,119.096z M248.311,20.056
				C358.856,22.53,451.468,106.896,464.681,216h-79.899c-12.451-65.67-69.249-114.592-136.471-116.914V20.056z"/>
		</g>
	</g>
</g>
<g>
</g>
<g>
</g>
<g>
</g>
<g>
</g>
<g>
</g>
<g>
</g>
<g>
</g>
<g>
</g>
<g>
</g>
<g>
</g>
<g>
</g>
<g>
</g>
<g>
</g>
<g>
</g>
<g>
</g>
</svg>
